<?xml version="1.0" encoding="utf-8"?>
<!-- Generator: Adobe Illustrator 14.0.0, SVG Export Plug-In . SVG Version: 6.00 Build 43363)  -->
<!DOCTYPE svg PUBLIC "-//W3C//DTD SVG 1.1//EN" "http://www.w3.org/Graphics/SVG/1.1/DTD/svg11.dtd">
<svg version="1.1" id="Layer_1" xmlns="http://www.w3.org/2000/svg" xmlns:xlink="http://www.w3.org/1999/xlink" x="0px" y="0px"
	 width="9.922px" height="7.636px" viewBox="0 0 9.922 7.636" enable-background="new 0 0 9.922 7.636" xml:space="preserve">
<path fill="#FFFFFF" d="M8.992,0H0.931C0.418,0,0,0.396,0,0.881v5.874c0,0.484,0.418,0.881,0.931,0.881h8.062
	c0.51,0,0.93-0.396,0.93-0.881V0.881C9.922,0.396,9.502,0,8.992,0 M3.865,3.878L1.242,5.812V1.209L3.865,3.878z M1.708,1.176h6.505
	L4.961,3.487L1.708,1.176z M3.967,3.98l0.994,1.013L5.957,3.98l2.041,2.481H1.925L3.967,3.98z M6.058,3.878L8.68,1.209v4.604
	L6.058,3.878z"/>
</svg>
