<?xml version="1.0" encoding="utf-8"?>
<!-- Generator: Adobe Illustrator 14.0.0, SVG Export Plug-In . SVG Version: 6.00 Build 43363)  -->
<!DOCTYPE svg PUBLIC "-//W3C//DTD SVG 1.1//EN" "http://www.w3.org/Graphics/SVG/1.1/DTD/svg11.dtd">
<svg version="1.1" id="Layer_1" xmlns="http://www.w3.org/2000/svg" xmlns:xlink="http://www.w3.org/1999/xlink" x="0px" y="0px"
	 width="10.471px" height="9.921px" viewBox="0 0 10.471 9.921" enable-background="new 0 0 10.471 9.921" xml:space="preserve">
<path fill="#FFFFFF" d="M8.938,1.451c0.991,0.938,1.533,2.184,1.533,3.509S9.929,7.531,8.938,8.469
	C7.95,9.405,6.634,9.921,5.236,9.921c-1.399,0-2.715-0.516-3.705-1.452C0.544,7.531,0,6.285,0,4.96s0.544-2.57,1.531-3.509
	C2.521,0.516,3.837,0,5.236,0C6.634,0,7.95,0.516,8.938,1.451 M8.476,8.03C9.12,7.418,9.549,6.657,9.727,5.829
	C9.59,6.022,9.456,6.093,9.375,5.663C9.291,4.962,8.609,5.41,8.184,5.161c-0.451,0.287-1.461-0.56-1.289,0.396
	c0.263,0.43,1.431-0.576,0.849,0.334c-0.37,0.636-1.355,2.044-1.228,2.773c0.016,1.063-1.146,0.223-1.547-0.131
	c-0.27-0.706-0.093-1.94-0.798-2.287C3.406,6.214,2.75,6.149,2.451,5.339c-0.177-0.58,0.191-1.443,0.848-1.576
	C4.258,3.191,4.601,4.432,5.5,4.455C5.781,4.179,6.542,4.09,6.605,3.778c-0.59-0.099,0.749-0.47-0.057-0.681
	C6.104,3.146,5.817,3.534,6.056,3.862c-0.862,0.189-0.89-1.183-1.718-0.75c-0.021,0.686-1.352,0.222-0.46,0.083
	C4.183,3.069,3.377,2.702,3.812,2.77c0.213-0.012,0.934-0.25,0.738-0.412C4.953,2.122,5.29,2.924,5.683,2.34
	c0.283-0.448-0.12-0.531-0.474-0.304C5.007,1.824,5.561,1.364,6.05,1.167c0.162-0.066,0.317-0.103,0.437-0.093
	c0.247,0.27,0.702,0.316,0.728-0.032C6.604,0.767,5.933,0.62,5.236,0.62c-0.999,0-1.949,0.3-2.735,0.856
	c0.211,0.092,0.332,0.206,0.128,0.352c-0.159,0.446-0.8,1.045-1.362,0.961C0.975,3.266,0.781,3.792,0.7,4.343
	c0.471,0.148,0.579,0.441,0.479,0.54C0.938,5.08,0.791,5.362,0.714,5.671C0.869,6.56,1.309,7.38,1.996,8.03
	c0.863,0.82,2.016,1.27,3.24,1.27C6.459,9.3,7.609,8.851,8.476,8.03"/>
</svg>
