<?xml version="1.0" encoding="utf-8"?>
<!-- Generator: Adobe Illustrator 14.0.0, SVG Export Plug-In . SVG Version: 6.00 Build 43363)  -->
<!DOCTYPE svg PUBLIC "-//W3C//DTD SVG 1.1//EN" "http://www.w3.org/Graphics/SVG/1.1/DTD/svg11.dtd">
<svg version="1.1" id="Layer_1" xmlns="http://www.w3.org/2000/svg" xmlns:xlink="http://www.w3.org/1999/xlink" x="0px" y="0px"
	 width="8.52px" height="9.922px" viewBox="0 0 8.52 9.922" enable-background="new 0 0 8.52 9.922" xml:space="preserve">
<path fill="#FFFFFF" d="M7.988,9.922H0.533C0.238,9.922,0,9.696,0,9.416c0-0.723,0.321-1.599,0.862-2.342
	c0.45-0.621,1.007-1.09,1.606-1.362C2.203,5.484,1.977,5.206,1.796,4.89C1.507,4.384,1.356,3.798,1.356,3.195
	c0-0.837,0.288-1.627,0.816-2.227C2.725,0.344,3.466,0,4.259,0c0.795,0,1.536,0.344,2.087,0.969c0.528,0.6,0.819,1.39,0.819,2.227
	c0,0.603-0.152,1.188-0.44,1.694C6.544,5.206,6.316,5.484,6.053,5.712c0.599,0.272,1.154,0.741,1.604,1.362
	C8.198,7.817,8.52,8.693,8.52,9.416C8.52,9.696,8.283,9.922,7.988,9.922 M1.133,8.912H7.39C7.284,8.5,7.071,8.046,6.78,7.646
	C6.319,7.014,5.747,6.599,5.165,6.48C4.919,6.43,4.744,6.226,4.744,5.986V5.627c0-0.182,0.103-0.349,0.27-0.439
	C5.673,4.833,6.1,4.051,6.1,3.195c0-1.206-0.825-2.187-1.841-2.187c-1.012,0-1.838,0.98-1.838,2.187
	c0,0.854,0.426,1.638,1.086,1.992c0.167,0.091,0.27,0.258,0.27,0.439v0.359c0,0.239-0.177,0.443-0.42,0.494
	C2.774,6.599,2.199,7.014,1.74,7.646C1.449,8.046,1.235,8.5,1.133,8.912"/>
</svg>
