<?xml version="1.0" encoding="utf-8"?>
<!-- Generator: Adobe Illustrator 17.1.0, SVG Export Plug-In . SVG Version: 6.00 Build 0)  -->
<!DOCTYPE svg PUBLIC "-//W3C//DTD SVG 1.1//EN" "http://www.w3.org/Graphics/SVG/1.1/DTD/svg11.dtd">
<svg version="1.1" id="Layer_1" xmlns="http://www.w3.org/2000/svg" xmlns:xlink="http://www.w3.org/1999/xlink" x="0px" y="0px"
	 viewBox="0 0 240.3 3028.1" enable-background="new 0 0 240.3 3028.1" xml:space="preserve">
<g>
	<path fill="#FFFFFF" d="M55.6,13.5v6.3h0.1c0.4-1.1,1-2,1.8-2.9c0.7-0.9,1.6-1.7,2.6-2.3c1-0.6,2-1.1,3.1-1.5
		c1.1-0.4,2.2-0.5,3.4-0.5c0.6,0,1.3,0.1,2.1,0.3v8.7c-0.4-0.1-1-0.2-1.6-0.2c-0.6-0.1-1.2-0.1-1.8-0.1c-1.7,0-3.2,0.3-4.4,0.9
		c-1.2,0.6-2.1,1.4-2.9,2.3c-0.7,1-1.2,2.1-1.6,3.5c-0.3,1.3-0.5,2.8-0.5,4.3v15.4h-9.4V13.5H55.6z"/>
	<path fill="#FFFFFF" d="M78.9,39.5c1.4,1.4,3.4,2,6.1,2c1.9,0,3.5-0.5,4.9-1.4c1.4-0.9,2.2-2,2.5-3h8.3c-1.3,4.1-3.4,7-6.1,8.8
		c-2.7,1.8-6,2.6-9.9,2.6c-2.7,0-5.1-0.4-7.3-1.3c-2.2-0.9-4-2.1-5.5-3.7c-1.5-1.6-2.7-3.5-3.5-5.7c-0.8-2.2-1.2-4.6-1.2-7.3
		c0-2.6,0.4-4.9,1.3-7.1c0.8-2.2,2-4.1,3.6-5.7c1.5-1.6,3.4-2.9,5.5-3.8c2.1-0.9,4.5-1.4,7.1-1.4c2.9,0,5.4,0.6,7.6,1.7
		c2.2,1.1,3.9,2.6,5.3,4.5c1.4,1.9,2.4,4.1,3,6.5c0.6,2.4,0.8,5,0.7,7.6H76.6C76.7,35.9,77.5,38.1,78.9,39.5z M89.5,21.5
		c-1.1-1.2-2.8-1.9-5.1-1.9c-1.5,0-2.7,0.3-3.7,0.8c-1,0.5-1.8,1.1-2.4,1.9c-0.6,0.8-1,1.5-1.3,2.4c-0.2,0.8-0.4,1.6-0.4,2.2h15.3
		C91.4,24.5,90.6,22.7,89.5,21.5z"/>
	<path fill="#FFFFFF" d="M111.9,13.5v4.8h0.2c1.2-2,2.7-3.4,4.6-4.3c1.9-0.9,3.8-1.4,5.8-1.4c2.5,0,4.6,0.3,6.2,1
		c1.6,0.7,2.9,1.6,3.8,2.8c0.9,1.2,1.6,2.7,2,4.4c0.4,1.7,0.6,3.7,0.6,5.8v21h-9.4V28.4c0-2.8-0.4-4.9-1.3-6.3
		c-0.9-1.4-2.4-2.1-4.7-2.1c-2.6,0-4.4,0.8-5.6,2.3c-1.1,1.5-1.7,4-1.7,7.5v17.9h-9.4V13.5H111.9z"/>
	<path fill="#FFFFFF" d="M162.6,43.3c-1.1,1.9-2.5,3.2-4.3,4c-1.8,0.8-3.8,1.2-6.1,1.2c-2.6,0-4.8-0.5-6.7-1.5c-1.9-1-3.5-2.3-4.8-4
		c-1.3-1.7-2.2-3.6-2.8-5.9c-0.6-2.2-1-4.5-1-6.9c0-2.3,0.3-4.5,1-6.6c0.6-2.1,1.6-4,2.8-5.7c1.3-1.6,2.8-2.9,4.7-3.9
		c1.9-1,4.1-1.5,6.6-1.5c2,0,4,0.4,5.8,1.3c1.8,0.9,3.3,2.1,4.3,3.8h0.1V0.5h9.4v47.2h-8.9v-4.4H162.6z M162.2,26.4
		c-0.3-1.3-0.7-2.4-1.4-3.4c-0.6-1-1.5-1.8-2.5-2.4c-1-0.6-2.3-0.9-3.8-0.9c-1.5,0-2.8,0.3-3.9,0.9c-1.1,0.6-1.9,1.4-2.5,2.4
		c-0.6,1-1.1,2.2-1.4,3.5c-0.3,1.3-0.4,2.7-0.4,4.1c0,1.3,0.2,2.6,0.5,4c0.3,1.3,0.8,2.5,1.5,3.5c0.7,1,1.5,1.9,2.6,2.5
		c1,0.6,2.3,1,3.7,1c1.5,0,2.8-0.3,3.9-0.9c1-0.6,1.9-1.4,2.5-2.5c0.6-1,1.1-2.2,1.3-3.5c0.3-1.3,0.4-2.7,0.4-4.1
		C162.6,29.1,162.4,27.7,162.2,26.4z"/>
	<path fill="#FFFFFF" d="M50.7,70.8c0.8-2.2,2-4.1,3.6-5.7c1.5-1.6,3.4-2.8,5.6-3.6c2.2-0.9,4.6-1.3,7.3-1.3c2.7,0,5.1,0.4,7.3,1.3
		c2.2,0.9,4,2.1,5.6,3.6c1.5,1.6,2.7,3.5,3.6,5.7c0.8,2.2,1.3,4.7,1.3,7.4c0,2.7-0.4,5.2-1.3,7.4c-0.8,2.2-2,4.1-3.6,5.7
		c-1.5,1.6-3.4,2.8-5.6,3.6c-2.2,0.8-4.6,1.3-7.3,1.3c-2.7,0-5.1-0.4-7.3-1.3c-2.2-0.8-4-2-5.6-3.6c-1.5-1.6-2.7-3.4-3.6-5.7
		c-0.8-2.2-1.3-4.7-1.3-7.4C49.4,75.5,49.8,73,50.7,70.8z M59.2,82.3c0.3,1.3,0.7,2.5,1.4,3.5c0.6,1,1.5,1.9,2.5,2.5
		c1.1,0.6,2.4,0.9,4,0.9s2.9-0.3,4-0.9c1.1-0.6,1.9-1.4,2.6-2.5c0.6-1,1.1-2.2,1.4-3.5c0.3-1.3,0.4-2.6,0.4-4c0-1.4-0.1-2.7-0.4-4
		c-0.3-1.3-0.7-2.5-1.4-3.5c-0.6-1-1.5-1.8-2.6-2.5c-1.1-0.6-2.4-1-4-1s-2.9,0.3-4,1c-1.1,0.6-1.9,1.5-2.5,2.5
		c-0.6,1-1.1,2.2-1.4,3.5c-0.3,1.3-0.4,2.7-0.4,4C58.8,79.6,58.9,81,59.2,82.3z"/>
	<path fill="#FFFFFF" d="M94.4,86.8c0.4,0.7,1,1.3,1.6,1.8c0.7,0.5,1.4,0.8,2.3,1c0.9,0.2,1.8,0.3,2.7,0.3c0.7,0,1.4-0.1,2.1-0.2
		c0.7-0.2,1.4-0.4,2-0.7c0.6-0.3,1.1-0.8,1.5-1.3c0.4-0.6,0.6-1.2,0.6-2.1c0-1.4-0.9-2.5-2.8-3.2c-1.9-0.7-4.5-1.4-7.8-2.1
		c-1.4-0.3-2.7-0.7-4-1.1c-1.3-0.4-2.5-1-3.5-1.7c-1-0.7-1.8-1.5-2.4-2.6c-0.6-1-0.9-2.3-0.9-3.8c0-2.2,0.4-4,1.3-5.4
		c0.9-1.4,2-2.5,3.4-3.3c1.4-0.8,3-1.4,4.8-1.7c1.8-0.3,3.6-0.5,5.4-0.5c1.9,0,3.6,0.2,5.4,0.5c1.7,0.4,3.3,0.9,4.7,1.8
		c1.4,0.8,2.5,2,3.4,3.3c0.9,1.4,1.4,3.1,1.6,5.3h-8.9c-0.1-1.8-0.8-3-2-3.7c-1.2-0.6-2.7-1-4.4-1c-0.5,0-1.1,0-1.7,0.1
		c-0.6,0.1-1.2,0.2-1.7,0.4c-0.5,0.2-0.9,0.5-1.3,1c-0.4,0.4-0.5,1-0.5,1.7c0,0.8,0.3,1.5,0.9,2c0.6,0.5,1.4,1,2.4,1.3
		c1,0.3,2.1,0.6,3.4,0.9c1.3,0.3,2.6,0.6,3.9,0.9c1.4,0.3,2.7,0.7,4,1.1c1.3,0.4,2.5,1,3.5,1.8c1,0.7,1.8,1.6,2.4,2.7
		c0.6,1.1,0.9,2.4,0.9,4c0,2.2-0.5,4.1-1.4,5.7c-0.9,1.5-2.1,2.7-3.5,3.7c-1.5,0.9-3.1,1.6-5,2c-1.9,0.4-3.8,0.6-5.7,0.6
		c-2,0-3.9-0.2-5.8-0.6c-1.9-0.4-3.6-1.1-5.1-2c-1.5-0.9-2.7-2.1-3.6-3.7c-0.9-1.5-1.5-3.4-1.6-5.7h8.9C93.8,85.2,94,86.1,94.4,86.8
		z"/>
	<path fill="#FFFFFF" d="M127.3,61.1v4.6h0.1c1.2-1.8,2.7-3.1,4.5-4.1c1.7-1,3.7-1.5,6-1.5c2.2,0,4.1,0.4,5.9,1.3
		c1.8,0.8,3.1,2.3,4.1,4.4c1-1.5,2.4-2.8,4.1-4c1.7-1.1,3.8-1.7,6.2-1.7c1.8,0,3.5,0.2,5,0.7c1.5,0.4,2.9,1.1,4,2.1
		c1.1,1,2,2.2,2.6,3.8c0.6,1.6,0.9,3.4,0.9,5.7v22.9h-9.4V75.9c0-1.1,0-2.2-0.1-3.2c-0.1-1-0.3-1.9-0.7-2.6c-0.4-0.7-1-1.3-1.8-1.8
		c-0.8-0.4-1.8-0.7-3.1-0.7c-1.3,0-2.4,0.3-3.2,0.8c-0.8,0.5-1.5,1.2-1.9,2c-0.5,0.8-0.8,1.7-0.9,2.8c-0.2,1-0.2,2.1-0.2,3.1v19
		h-9.4V76.1c0-1,0-2-0.1-3c0-1-0.2-1.9-0.6-2.7c-0.3-0.8-0.9-1.5-1.7-2c-0.8-0.5-1.9-0.8-3.4-0.8c-0.4,0-1,0.1-1.8,0.3
		c-0.7,0.2-1.4,0.6-2.1,1.1c-0.7,0.6-1.3,1.3-1.8,2.4c-0.5,1-0.7,2.4-0.7,4.1v19.8h-9.4V61.1H127.3z"/>
	<path fill="#FFFFFF" d="M175.3,66.2c1-1.5,2.2-2.6,3.7-3.5c1.5-0.9,3.2-1.5,5.1-1.9c1.9-0.4,3.8-0.6,5.7-0.6c1.7,0,3.5,0.1,5.2,0.4
		c1.8,0.2,3.4,0.7,4.8,1.4c1.5,0.7,2.6,1.7,3.6,2.9c0.9,1.3,1.4,2.9,1.4,5v17.8c0,1.5,0.1,3,0.3,4.4c0.2,1.4,0.5,2.5,0.9,3.2h-9.5
		c-0.2-0.5-0.3-1.1-0.4-1.6c-0.1-0.6-0.2-1.1-0.2-1.7c-1.5,1.5-3.3,2.6-5.3,3.2c-2,0.6-4.1,0.9-6.2,0.9c-1.6,0-3.2-0.2-4.6-0.6
		c-1.4-0.4-2.6-1-3.7-1.9c-1.1-0.8-1.9-1.9-2.5-3.2c-0.6-1.3-0.9-2.8-0.9-4.6c0-1.9,0.3-3.5,1-4.8c0.7-1.3,1.6-2.3,2.6-3
		c1.1-0.7,2.3-1.3,3.7-1.7c1.4-0.4,2.8-0.7,4.2-0.9c1.4-0.2,2.8-0.4,4.2-0.5c1.4-0.1,2.6-0.3,3.6-0.6c1.1-0.3,1.9-0.6,2.5-1.2
		c0.6-0.5,0.9-1.2,0.9-2.2c0-1-0.2-1.8-0.5-2.4c-0.3-0.6-0.8-1.1-1.3-1.4c-0.6-0.3-1.2-0.6-1.9-0.7c-0.7-0.1-1.5-0.2-2.3-0.2
		c-1.9,0-3.3,0.4-4.4,1.2c-1.1,0.8-1.7,2.1-1.9,4h-9.4C173.8,69.4,174.3,67.6,175.3,66.2z M193.8,79.4c-0.6,0.2-1.2,0.4-1.9,0.5
		c-0.7,0.1-1.4,0.2-2.1,0.3c-0.8,0.1-1.5,0.2-2.2,0.3c-0.7,0.1-1.4,0.3-2.1,0.5c-0.7,0.2-1.3,0.5-1.8,0.9c-0.5,0.4-0.9,0.8-1.2,1.4
		c-0.3,0.6-0.5,1.3-0.5,2.2c0,0.8,0.2,1.5,0.5,2.1c0.3,0.6,0.7,1,1.3,1.4c0.5,0.3,1.1,0.6,1.9,0.7c0.7,0.1,1.4,0.2,2.2,0.2
		c1.9,0,3.3-0.3,4.3-0.9c1-0.6,1.8-1.4,2.2-2.2c0.5-0.9,0.8-1.7,0.9-2.6c0.1-0.9,0.2-1.6,0.2-2.1v-3.5
		C194.9,78.9,194.4,79.2,193.8,79.4z"/>
	<path fill="#FFFFFF" d="M217.1,61.1v4.8h0.2c1.2-2,2.7-3.4,4.6-4.3c1.9-0.9,3.8-1.4,5.8-1.4c2.5,0,4.6,0.3,6.2,1
		c1.6,0.7,2.9,1.6,3.8,2.8c0.9,1.2,1.6,2.7,2,4.4c0.4,1.7,0.6,3.7,0.6,5.8v21h-9.4V76c0-2.8-0.4-4.9-1.3-6.3
		c-0.9-1.4-2.4-2.1-4.7-2.1c-2.6,0-4.4,0.8-5.6,2.3c-1.1,1.5-1.7,4-1.7,7.5v17.9h-9.4V61.1H217.1z"/>
</g>
<path fill="#FFFFFF" d="M18,0L0,47.7v2980.4h10.6l0-2953h25.2l0,2953h10.9V47.7L28.8,0H18z M35.7,47.7L35.7,47.7l0,18.5H10.5V47.7
	l0,0l3.7-10.6h17.8L35.7,47.7z M17.2,29.2l1.6-4.4l1.6-4.4l1.6-4.4l1.6-4.4h0h0h0h0l1.5,4.4l1.5,4.4l1.5,4.4l1.5,4.4l-3.1-2.5
	l-3.1,2.5l-3.1-2.5L17.2,29.2z"/>
</svg>
