<?xml version="1.0" encoding="utf-8"?>
<!-- Generator: Adobe Illustrator 14.0.0, SVG Export Plug-In . SVG Version: 6.00 Build 43363)  -->
<!DOCTYPE svg PUBLIC "-//W3C//DTD SVG 1.1//EN" "http://www.w3.org/Graphics/SVG/1.1/DTD/svg11.dtd">
<svg version="1.1" id="Layer_1" xmlns="http://www.w3.org/2000/svg" xmlns:xlink="http://www.w3.org/1999/xlink" x="0px" y="0px"
	 width="6.545px" height="9.922px" viewBox="0 0 6.545 9.922" enable-background="new 0 0 6.545 9.922" xml:space="preserve">
<path fill="#FFFFFF" d="M5.562,0H0.98C0.439,0,0,0.418,0,0.929v8.062c0,0.513,0.439,0.931,0.98,0.931h4.582
	c0.541,0,0.982-0.418,0.982-0.931V0.929C6.545,0.418,6.104,0,5.562,0 M1.963,0.465H4.58v0.311H1.963V0.465z M3.271,9.301
	c-0.361,0-0.653-0.277-0.653-0.619c0-0.343,0.292-0.62,0.653-0.62c0.363,0,0.655,0.277,0.655,0.62
	C3.926,9.023,3.634,9.301,3.271,9.301 M5.89,7.44H0.653v-6.2H5.89V7.44z"/>
</svg>
