<?xml version="1.0" encoding="utf-8"?>
<!-- Generator: Adobe Illustrator 14.0.0, SVG Export Plug-In . SVG Version: 6.00 Build 43363)  -->
<!DOCTYPE svg PUBLIC "-//W3C//DTD SVG 1.1//EN" "http://www.w3.org/Graphics/SVG/1.1/DTD/svg11.dtd">
<svg version="1.1" id="Layer_1" xmlns="http://www.w3.org/2000/svg" xmlns:xlink="http://www.w3.org/1999/xlink" x="0px" y="0px"
	 width="240.262px" height="1169.399px" viewBox="0 0 240.262 1169.399" enable-background="new 0 0 240.262 1169.399"
	 xml:space="preserve">
<g>
	<path fill="#FFFFFF" d="M54.854,13.109v6.348h0.132c0.44-1.058,1.035-2.039,1.785-2.942c0.749-0.903,1.609-1.675,2.579-2.314
		c0.969-0.639,2.005-1.134,3.107-1.488c1.102-0.353,2.249-0.529,3.438-0.529c0.617,0,1.3,0.11,2.051,0.331v8.729
		c-0.441-0.088-0.971-0.166-1.588-0.231c-0.617-0.066-1.213-0.1-1.785-0.1c-1.719,0-3.174,0.288-4.364,0.86
		c-1.19,0.573-2.149,1.355-2.876,2.347c-0.727,0.992-1.246,2.149-1.554,3.472c-0.309,1.323-0.463,2.755-0.463,4.298v15.407h-9.39
		V13.109H54.854z"/>
	<path fill="#FFFFFF" d="M78.123,39.096c1.41,1.367,3.438,2.05,6.083,2.05c1.896,0,3.526-0.473,4.894-1.422
		c1.365-0.947,2.203-1.951,2.512-3.009h8.266c-1.322,4.1-3.35,7.032-6.083,8.795c-2.733,1.764-6.04,2.645-9.919,2.645
		c-2.689,0-5.113-0.43-7.273-1.289c-2.16-0.86-3.99-2.083-5.488-3.67c-1.499-1.587-2.656-3.482-3.471-5.687
		c-0.816-2.204-1.225-4.628-1.225-7.273c0-2.556,0.419-4.937,1.257-7.142c0.837-2.204,2.027-4.11,3.571-5.72
		c1.542-1.608,3.383-2.876,5.521-3.802c2.137-0.926,4.506-1.389,7.107-1.389c2.91,0,5.444,0.562,7.604,1.686
		c2.159,1.124,3.935,2.635,5.323,4.529c1.389,1.896,2.391,4.057,3.009,6.48c0.616,2.425,0.837,4.959,0.661,7.604H75.808
		C75.94,35.525,76.71,37.73,78.123,39.096z M88.735,21.11c-1.124-1.234-2.833-1.852-5.124-1.852c-1.5,0-2.744,0.254-3.736,0.76
		c-0.992,0.507-1.785,1.136-2.381,1.885c-0.595,0.75-1.014,1.543-1.256,2.38c-0.243,0.838-0.387,1.587-0.43,2.248h15.274
		C90.641,24.152,89.859,22.345,88.735,21.11z"/>
	<path fill="#FFFFFF" d="M111.104,13.109v4.761h0.198c1.19-1.984,2.732-3.427,4.629-4.331c1.895-0.903,3.835-1.355,5.818-1.355
		c2.514,0,4.573,0.342,6.184,1.025c1.607,0.684,2.876,1.631,3.802,2.843c0.926,1.213,1.575,2.689,1.95,4.43
		c0.375,1.742,0.562,3.67,0.562,5.786v21.027h-9.39V27.987c0-2.821-0.441-4.926-1.323-6.315s-2.445-2.083-4.694-2.083
		c-2.558,0-4.409,0.76-5.554,2.281c-1.147,1.521-1.72,4.023-1.72,7.505v17.92h-9.39V13.109H111.104z"/>
	<path fill="#FFFFFF" d="M161.787,42.931c-1.102,1.852-2.545,3.186-4.33,4c-1.785,0.815-3.803,1.223-6.051,1.223
		c-2.557,0-4.805-0.496-6.744-1.488c-1.941-0.992-3.539-2.336-4.795-4.033c-1.256-1.697-2.205-3.647-2.843-5.852
		c-0.64-2.204-0.958-4.497-0.958-6.877c0-2.292,0.318-4.507,0.958-6.646c0.639-2.138,1.587-4.022,2.843-5.654
		c1.256-1.63,2.832-2.942,4.729-3.934c1.895-0.992,4.1-1.488,6.611-1.488c2.027,0,3.957,0.43,5.787,1.289
		c1.828,0.86,3.273,2.127,4.33,3.802h0.133V0.083h9.391v47.213h-8.928v-4.364H161.787z M161.391,26.037
		c-0.264-1.3-0.717-2.447-1.355-3.438c-0.639-0.992-1.465-1.796-2.479-2.414c-1.016-0.617-2.293-0.926-3.836-0.926
		s-2.844,0.309-3.902,0.926c-1.057,0.618-1.906,1.433-2.545,2.446c-0.639,1.015-1.102,2.172-1.389,3.472
		c-0.287,1.301-0.43,2.656-0.43,4.067c0,1.322,0.154,2.645,0.463,3.967c0.309,1.322,0.805,2.502,1.488,3.538
		c0.682,1.036,1.543,1.874,2.578,2.513c1.035,0.64,2.281,0.959,3.736,0.959c1.543,0,2.832-0.308,3.869-0.926
		c1.035-0.617,1.861-1.443,2.479-2.48c0.617-1.035,1.059-2.215,1.322-3.538c0.266-1.322,0.396-2.688,0.396-4.1
		C161.787,28.693,161.656,27.337,161.391,26.037z"/>
	<path fill="#FFFFFF" d="M50.673,70.823c0.837-2.226,2.027-4.122,3.571-5.687c1.542-1.564,3.394-2.777,5.554-3.637
		c2.16-0.859,4.584-1.289,7.273-1.289s5.125,0.43,7.307,1.289c2.183,0.86,4.045,2.073,5.588,3.637
		c1.543,1.565,2.732,3.461,3.57,5.687c0.838,2.227,1.257,4.706,1.257,7.439c0,2.734-0.419,5.202-1.257,7.406
		c-0.838,2.205-2.027,4.089-3.57,5.654c-1.543,1.565-3.405,2.767-5.588,3.604c-2.182,0.837-4.617,1.256-7.307,1.256
		s-5.113-0.419-7.273-1.256c-2.16-0.836-4.012-2.038-5.554-3.604c-1.543-1.564-2.734-3.449-3.571-5.654
		c-0.838-2.204-1.256-4.672-1.256-7.406C49.417,75.529,49.835,73.049,50.673,70.823z M59.204,82.262
		c0.264,1.301,0.716,2.469,1.355,3.504c0.638,1.037,1.487,1.863,2.546,2.48c1.058,0.618,2.381,0.926,3.967,0.926
		c1.588,0,2.92-0.308,4.001-0.926c1.079-0.617,1.939-1.443,2.579-2.48c0.639-1.035,1.091-2.204,1.355-3.504
		c0.264-1.3,0.396-2.634,0.396-4c0-1.366-0.133-2.711-0.396-4.034c-0.265-1.322-0.717-2.49-1.355-3.504
		c-0.64-1.014-1.5-1.84-2.579-2.48c-1.081-0.638-2.413-0.958-4.001-0.958c-1.586,0-2.909,0.32-3.967,0.958
		c-1.059,0.64-1.908,1.466-2.546,2.48c-0.64,1.015-1.091,2.182-1.355,3.504c-0.265,1.323-0.397,2.668-0.397,4.034
		C58.807,79.628,58.939,80.962,59.204,82.262z"/>
	<path fill="#FFFFFF" d="M94.447,86.825c0.419,0.728,0.959,1.323,1.621,1.786c0.66,0.463,1.421,0.805,2.281,1.025
		c0.859,0.221,1.752,0.331,2.678,0.331c0.661,0,1.355-0.077,2.082-0.231c0.729-0.154,1.389-0.397,1.984-0.728
		s1.091-0.771,1.488-1.322c0.396-0.551,0.595-1.245,0.595-2.083c0-1.41-0.938-2.468-2.811-3.174
		c-1.874-0.705-4.485-1.411-7.835-2.116c-1.367-0.308-2.701-0.671-4.001-1.091c-1.301-0.418-2.458-0.969-3.472-1.653
		c-1.015-0.683-1.83-1.542-2.447-2.579c-0.617-1.036-0.926-2.303-0.926-3.802c0-2.204,0.431-4.011,1.29-5.422
		c0.86-1.41,1.994-2.523,3.405-3.339c1.41-0.815,2.998-1.389,4.762-1.719c1.762-0.331,3.57-0.496,5.422-0.496
		s3.646,0.176,5.389,0.529c1.741,0.354,3.295,0.948,4.662,1.785c1.365,0.838,2.501,1.951,3.405,3.339
		c0.903,1.389,1.443,3.141,1.62,5.257h-8.927c-0.132-1.807-0.816-3.03-2.05-3.67c-1.234-0.638-2.689-0.958-4.364-0.958
		c-0.529,0-1.103,0.033-1.72,0.099c-0.617,0.066-1.18,0.209-1.686,0.43c-0.508,0.221-0.938,0.541-1.289,0.959
		c-0.354,0.419-0.529,0.981-0.529,1.686c0,0.838,0.308,1.521,0.926,2.05c0.616,0.529,1.422,0.959,2.413,1.29
		s2.126,0.628,3.405,0.893c1.278,0.265,2.579,0.552,3.901,0.86c1.366,0.309,2.7,0.684,4.001,1.124
		c1.299,0.441,2.457,1.025,3.471,1.752c1.014,0.728,1.829,1.632,2.447,2.711c0.617,1.081,0.926,2.414,0.926,4
		c0,2.248-0.453,4.133-1.355,5.653c-0.904,1.521-2.083,2.745-3.538,3.67c-1.454,0.926-3.119,1.577-4.992,1.951
		c-1.874,0.374-3.78,0.562-5.72,0.562c-1.984,0-3.924-0.198-5.818-0.595c-1.896-0.397-3.582-1.058-5.059-1.984
		c-1.479-0.926-2.689-2.149-3.637-3.67c-0.949-1.521-1.467-3.427-1.555-5.72h8.927C93.819,85.228,94.028,86.098,94.447,86.825z"/>
	<path fill="#FFFFFF" d="M127.271,61.136v4.628h0.132c1.233-1.763,2.722-3.129,4.464-4.1c1.74-0.969,3.735-1.455,5.984-1.455
		c2.159,0,4.133,0.419,5.918,1.256c1.785,0.838,3.141,2.314,4.066,4.43c1.014-1.498,2.391-2.821,4.133-3.967
		c1.74-1.146,3.801-1.719,6.182-1.719c1.807,0,3.482,0.221,5.025,0.661c1.543,0.441,2.865,1.147,3.969,2.116
		c1.102,0.97,1.961,2.238,2.578,3.802c0.617,1.565,0.926,3.45,0.926,5.654v22.879h-9.391V75.947c0-1.146-0.043-2.226-0.131-3.24
		c-0.09-1.014-0.332-1.895-0.729-2.645c-0.396-0.749-0.98-1.344-1.752-1.786c-0.771-0.44-1.818-0.661-3.141-0.661
		s-2.393,0.254-3.207,0.76c-0.816,0.507-1.455,1.168-1.918,1.984c-0.463,0.816-0.771,1.742-0.926,2.777
		c-0.154,1.036-0.23,2.083-0.23,3.141v19.044h-9.391V76.146c0-1.013-0.021-2.017-0.066-3.008c-0.043-0.992-0.23-1.906-0.561-2.744
		c-0.332-0.837-0.883-1.51-1.655-2.017c-0.771-0.506-1.906-0.76-3.404-0.76c-0.441,0-1.025,0.099-1.753,0.297
		c-0.728,0.199-1.433,0.574-2.116,1.125c-0.684,0.551-1.268,1.345-1.752,2.38c-0.485,1.036-0.727,2.392-0.727,4.066v19.837h-9.391
		V61.136H127.271z"/>
	<path fill="#FFFFFF" d="M175.297,66.161c0.969-1.455,2.203-2.623,3.703-3.505c1.498-0.881,3.184-1.509,5.057-1.884
		c1.875-0.374,3.758-0.562,5.654-0.562c1.719,0,3.461,0.122,5.225,0.363c1.762,0.243,3.371,0.717,4.826,1.422
		c1.455,0.706,2.645,1.686,3.57,2.942s1.389,2.921,1.389,4.993v17.787c0,1.544,0.088,3.02,0.266,4.431
		c0.176,1.411,0.484,2.469,0.926,3.174h-9.521c-0.178-0.529-0.32-1.068-0.432-1.62c-0.109-0.551-0.188-1.113-0.23-1.686
		c-1.5,1.543-3.264,2.623-5.289,3.24c-2.029,0.617-4.102,0.925-6.217,0.925c-1.631,0-3.152-0.198-4.562-0.595
		c-1.412-0.397-2.645-1.014-3.703-1.852c-1.059-0.837-1.885-1.895-2.479-3.174c-0.596-1.278-0.893-2.799-0.893-4.563
		c0-1.939,0.34-3.538,1.023-4.794s1.564-2.258,2.645-3.008c1.08-0.75,2.314-1.312,3.703-1.687c1.389-0.374,2.789-0.671,4.199-0.893
		c1.41-0.22,2.799-0.396,4.166-0.529c1.365-0.132,2.58-0.331,3.637-0.595c1.059-0.265,1.895-0.65,2.514-1.157
		c0.617-0.506,0.902-1.245,0.859-2.215c0-1.013-0.166-1.818-0.496-2.414c-0.33-0.595-0.771-1.058-1.322-1.388
		c-0.553-0.331-1.191-0.551-1.918-0.662c-0.727-0.109-1.51-0.165-2.348-0.165c-1.852,0-3.307,0.396-4.363,1.19
		c-1.059,0.793-1.676,2.116-1.852,3.968h-9.391C173.775,69.445,174.326,67.616,175.297,66.161z M193.844,79.419
		c-0.596,0.198-1.234,0.364-1.918,0.496c-0.684,0.132-1.4,0.243-2.148,0.331c-0.75,0.089-1.5,0.198-2.248,0.331
		c-0.705,0.132-1.4,0.309-2.084,0.529c-0.684,0.221-1.277,0.519-1.785,0.893c-0.506,0.375-0.914,0.85-1.223,1.422
		c-0.309,0.573-0.463,1.301-0.463,2.182c0,0.838,0.154,1.543,0.463,2.116c0.309,0.574,0.727,1.025,1.256,1.356
		c0.529,0.331,1.146,0.562,1.852,0.694c0.705,0.132,1.432,0.198,2.182,0.198c1.852,0,3.285-0.308,4.299-0.926
		c1.014-0.617,1.764-1.355,2.248-2.215c0.484-0.859,0.783-1.729,0.893-2.612c0.109-0.881,0.166-1.587,0.166-2.116v-3.504
		C194.936,78.946,194.439,79.221,193.844,79.419z"/>
	<path fill="#FFFFFF" d="M217.119,61.136v4.761h0.197c1.191-1.984,2.734-3.427,4.629-4.331c1.895-0.903,3.836-1.355,5.82-1.355
		c2.512,0,4.572,0.342,6.182,1.025c1.609,0.684,2.877,1.631,3.803,2.843c0.926,1.213,1.576,2.689,1.951,4.43
		c0.373,1.742,0.561,3.67,0.561,5.786v21.027h-9.389V76.014c0-2.821-0.441-4.926-1.322-6.315c-0.883-1.389-2.447-2.083-4.695-2.083
		c-2.557,0-4.408,0.76-5.555,2.281s-1.719,4.023-1.719,7.505v17.92h-9.391V61.136H217.119z"/>
</g>
<path fill="#FFFFFF" d="M18.031,0L0,47.684v1121.715h10.575L10.541,75.026h25.188l0.002,1094.373h10.885V47.684L28.784,0H18.031z
	 M35.73,47.684l-0.002-0.005v18.456H10.541V47.679l0.011,0.005l3.741-10.618h17.831L35.73,47.684z M17.152,29.223l1.553-4.375
	l1.553-4.374l1.553-4.374l1.553-4.375h0.033h0.033h0.033h0.034l1.502,4.375l1.503,4.374l1.503,4.374l1.502,4.375l-3.088-2.47
	l-3.089,2.47l-3.089-2.47L17.152,29.223z"/>
</svg>
